<svg width="174" height="36" viewBox="0 0 174 36" fill="none" xmlns="http://www.w3.org/2000/svg">
<path fill-rule="evenodd" clip-rule="evenodd" d="M0 2.66544C0 2.11307 0.443238 1.66528 0.99 1.66528H3.96C4.50676 1.66528 4.95 2.11307 4.95 2.66544V20.6683C4.95 21.2206 5.39324 21.6684 5.94 21.6684H18.81C19.3568 21.6684 19.8 21.2206 19.8 20.6683V17.6678C19.8 17.1154 19.3568 16.6676 18.81 16.6676H12.87C11.2297 16.6676 9.9 15.3243 9.9 13.6672V4.66576C9.9 3.00864 11.2297 1.66528 12.87 1.66528H21.78C23.4203 1.66528 24.75 3.00864 24.75 4.66576V23.6688C24.75 25.3259 23.4203 26.6692 21.78 26.6692H2.97C1.32971 26.6692 0 25.3259 0 23.6688V2.66544ZM19.8 7.66623C19.8 7.11386 19.3568 6.66607 18.81 6.66607H14.85V10.6667C14.85 11.2191 15.2932 11.6669 15.84 11.6669H19.8V7.66623Z" fill="url(#paint0_linear_109_22)"/>
<path d="M35.3252 0V27.8055H40.0896V0H35.3252Z" fill="#213F7D"/>
<path d="M63.5389 19.7304C64.287 11.6552 60.2314 7.59779 53.7345 7.59779C47.4345 7.59779 43.4183 11.8939 43.4183 17.8608C43.4183 24.1459 47.3952 28.3227 54.0889 28.3227C57.042 28.3227 60.3889 27.2884 62.4364 25.1403L59.3652 22.0773C58.2627 23.2309 55.9395 23.9072 54.1677 23.9072C50.7814 23.9072 48.6945 22.1569 48.3795 19.7304H63.5389ZM48.4583 15.7127C49.167 13.1669 51.2933 11.8939 53.892 11.8939C56.6483 11.8939 58.617 13.1669 58.932 15.7127H48.4583Z" fill="#213F7D"/>
<path d="M86.3374 27.8055V17.5028C86.3374 11.337 82.6755 7.87624 78.108 7.87624C75.6667 7.87624 73.698 8.87072 71.7292 10.8199L71.4142 8.1547H67.1224V27.8055H71.8867V17.7812C71.8867 14.7978 73.8949 12.2917 76.848 12.2917C79.9192 12.2917 81.5336 14.5591 81.5336 17.5425V27.8055H86.3374Z" fill="#213F7D"/>
<path d="M99.8762 12.2519C102.908 12.2519 105.507 14.5591 105.507 17.9801C105.507 21.5204 102.908 23.7481 99.8762 23.7481C96.805 23.7481 94.3637 21.4011 94.3637 17.9801C94.3637 14.4398 96.805 12.2519 99.8762 12.2519ZM105.822 0V10.8597C104.68 8.83094 101.491 7.71713 99.4431 7.71713C93.7731 7.71713 89.56 11.2177 89.56 17.9801C89.56 24.4243 93.8518 28.2431 99.5612 28.2431C101.924 28.2431 104.326 27.4475 105.822 25.1006L106.137 27.8055H110.626V0H105.822Z" fill="#213F7D"/>
<path d="M130.162 10.2232C127.918 8.23425 125.634 7.63757 122.602 7.63757C119.058 7.63757 114.412 9.22873 114.412 13.7635C114.412 18.2188 118.783 19.5713 122.445 19.8497C125.201 20.0088 126.303 20.5657 126.303 21.9182C126.303 23.3503 124.61 24.305 122.799 24.2652C120.633 24.2254 117.483 23.0718 116.105 21.5204L113.743 24.9812C116.578 27.9646 119.649 28.4818 122.72 28.4818C128.272 28.4818 131.068 25.4983 131.068 22.0376C131.068 16.8265 126.421 15.9912 122.76 15.7525C120.279 15.5934 119.137 14.8773 119.137 13.6044C119.137 12.3713 120.397 11.6552 122.681 11.6552C124.531 11.6552 126.106 12.0928 127.485 13.4055L130.162 10.2232Z" fill="#213F7D"/>
<path d="M143.518 23.5889C140.25 23.5889 138.006 21.0829 138.006 18.0199C138.006 14.9569 140.053 12.4508 143.518 12.4508C146.983 12.4508 149.031 14.9569 149.031 18.0199C149.031 21.0829 146.787 23.5889 143.518 23.5889ZM154.268 36V8.19448H149.779L149.464 10.8994C147.968 8.7116 145.369 7.75691 143.164 7.75691C137.179 7.75691 133.202 12.2519 133.202 18.0199C133.202 23.7481 136.785 28.2829 143.007 28.2829C145.054 28.2829 148.086 27.6464 149.464 25.4983V36H154.268Z" fill="#213F7D"/>
<path d="M158.487 8.19448V27.8055H163.291V17.463C163.291 13.8431 165.614 12.4906 168.134 12.4906C169.709 12.4906 170.615 12.9282 171.599 13.7635L173.765 9.54696C172.702 8.47293 170.772 7.67735 168.764 7.67735C166.796 7.67735 164.787 8.03536 163.291 10.4619L162.937 8.19448H158.487Z" fill="#213F7D"/>
<defs>
<linearGradient id="paint0_linear_109_22" x1="-1.87183e-06" y1="38.9212" x2="26.2531" y2="-4.22379" gradientUnits="userSpaceOnUse">
<stop stop-color="#213F7D"/>
<stop offset="1" stop-color="#39CDCC"/>
</linearGradient>
</defs>
</svg>
